<svg width="32" height="32" viewBox="0 0 32 32" fill="none" xmlns="http://www.w3.org/2000/svg">
<path d="M5.31754 10.1721C4.8308 8.06287 6.43275 6.04913 8.59742 6.04913H21.8848C23.4522 6.04913 24.8122 7.13102 25.1647 8.65832L28.6602 23.8057C29.147 25.9149 27.545 27.9286 25.3803 27.9286H12.093C10.5255 27.9286 9.16554 26.8468 8.81309 25.3195L5.31754 10.1721Z" fill="#26CF9F"/>
<path d="M3.94537 11.0982L7.73221 27.9286H3.73373C1.51127 27.9286 -0.101163 25.8129 0.488136 23.67L3.94537 11.0982Z" fill="#26CF9F"/>
<rect x="18" width="13" height="13" rx="6.5" fill="white"/>
<path d="M27.2083 5.95833H25.0417V3.79167C25.0417 3.64801 24.9846 3.51023 24.883 3.40865C24.7814 3.30707 24.6437 3.25 24.5 3.25C24.3563 3.25 24.2186 3.30707 24.117 3.40865C24.0154 3.51023 23.9583 3.64801 23.9583 3.79167V5.95833H21.7917C21.648 5.95833 21.5102 6.0154 21.4087 6.11698C21.3071 6.21857 21.25 6.35634 21.25 6.5C21.25 6.64366 21.3071 6.78143 21.4087 6.88302C21.5102 6.9846 21.648 7.04167 21.7917 7.04167H23.9583V9.20833C23.9583 9.35199 24.0154 9.48977 24.117 9.59135C24.2186 9.69293 24.3563 9.75 24.5 9.75C24.6437 9.75 24.7814 9.69293 24.883 9.59135C24.9846 9.48977 25.0417 9.35199 25.0417 9.20833V7.04167H27.2083C27.352 7.04167 27.4898 6.9846 27.5914 6.88302C27.6929 6.78143 27.75 6.64366 27.75 6.5C27.75 6.35634 27.6929 6.21857 27.5914 6.11698C27.4898 6.0154 27.352 5.95833 27.2083 5.95833Z" fill="#374957"/>
</svg>
