<svg width="48" height="48" viewBox="0 0 48 48" fill="none" xmlns="http://www.w3.org/2000/svg">
<rect width="48" height="48" rx="24" fill="#00AC49"/>
<path d="M28.2 24.8787C28.2 26.0457 27.7575 27.1649 26.9699 27.99C26.1822 28.8152 25.114 29.2787 24 29.2787C22.8861 29.2787 21.8179 28.8152 21.0302 27.99C20.2425 27.1649 19.8 26.0457 19.8 24.8787C19.8 23.7118 20.2425 22.5926 21.0302 21.7675C21.8179 20.9423 22.8861 20.4787 24 20.4787C25.114 20.4787 26.1822 20.9423 26.9699 21.7675C27.7575 22.5926 28.2 23.7118 28.2 24.8787Z" fill="white" fill-opacity="0.7"/>
<path d="M13.9201 16.96C13.0289 16.96 12.1743 17.3309 11.5442 17.991C10.9141 18.6511 10.5601 19.5464 10.5601 20.48V31.04C10.5601 31.9736 10.9141 32.8689 11.5442 33.529C12.1743 34.1891 13.0289 34.56 13.9201 34.56H34.0801C34.9712 34.56 35.8258 34.1891 36.4559 33.529C37.0861 32.8689 37.4401 31.9736 37.4401 31.04V20.48C37.4401 19.5464 37.0861 18.6511 36.4559 17.991C35.8258 17.3309 34.9712 16.96 34.0801 16.96H32.1111C31.22 16.9598 30.3656 16.5888 29.7356 15.9286L28.3445 14.4714C27.7146 13.8112 26.8601 13.4402 25.969 13.44H22.0311C21.14 13.4402 20.2856 13.8112 19.6556 14.4714L18.2645 15.9286C17.6346 16.5888 16.7801 16.9598 15.889 16.96H13.9201ZM14.7601 20.48C14.5373 20.48 14.3236 20.3873 14.1661 20.2223C14.0086 20.0572 13.9201 19.8334 13.9201 19.6C13.9201 19.3666 14.0086 19.1428 14.1661 18.9777C14.3236 18.8127 14.5373 18.72 14.7601 18.72C14.9828 18.72 15.1965 18.8127 15.354 18.9777C15.5116 19.1428 15.6001 19.3666 15.6001 19.6C15.6001 19.8334 15.5116 20.0572 15.354 20.2223C15.1965 20.3873 14.9828 20.48 14.7601 20.48ZM29.8801 24.88C29.8801 26.5137 29.2606 28.0806 28.1578 29.2358C27.0551 30.391 25.5595 31.04 24.0001 31.04C22.4406 31.04 20.945 30.391 19.8423 29.2358C18.7396 28.0806 18.1201 26.5137 18.1201 24.88C18.1201 23.2463 18.7396 21.6794 19.8423 20.5242C20.945 19.369 22.4406 18.72 24.0001 18.72C25.5595 18.72 27.0551 19.369 28.1578 20.5242C29.2606 21.6794 29.8801 23.2463 29.8801 24.88Z" fill="#DEDEDE"/>
</svg>
