<svg width="125" height="122" viewBox="0 0 125 122" fill="none" xmlns="http://www.w3.org/2000/svg">
<path d="M114.699 93.8468C114.809 95.2304 114.703 96.5864 114.409 97.881L113.923 97.7717C113.631 99.0559 113.147 100.277 112.499 101.4L112.931 101.649C112.253 102.823 111.403 103.891 110.411 104.816L110.071 104.451C109.124 105.335 108.042 106.081 106.856 106.654L107.072 107.103C105.876 107.681 104.579 108.089 103.205 108.293L103.133 107.8C102.498 107.894 101.847 107.944 101.182 107.944H99.2705V108.444H95.4482V107.944H91.626V108.444H87.8037V107.944H83.9814V108.444H80.1592V107.944H76.3379V108.444H72.5156V107.944H68.6934V108.444H64.8711V107.944H61.0488V108.444H57.2266V107.944H53.4053V108.444H49.583V107.944H47.6719C46.93 107.944 46.2001 107.881 45.4883 107.761L45.4043 108.252C43.8834 107.995 42.4402 107.483 41.125 106.757L41.3662 106.32C40.0836 105.612 38.9276 104.692 37.9492 103.602L37.5771 103.935C36.574 102.816 35.7507 101.525 35.1582 100.101L35.6191 99.9103C35.3417 99.2437 35.117 98.5464 34.9502 97.8234L34.5107 95.9172L34.0225 96.0295L33.1426 92.217L33.6309 92.1047L32.751 88.2922L32.2627 88.4045L31.3828 84.592L31.8711 84.4797L30.9912 80.6672L30.5039 80.7785L29.624 76.966L30.1113 76.8547L29.2314 73.0422L28.7441 73.1535L27.8643 69.341L28.3516 69.2297L27.4717 65.4172L26.9844 65.5285L26.1045 61.717L26.5918 61.6047L25.7129 57.7922L25.2246 57.9045L24.3447 54.092L24.833 53.9797L23.9531 50.1672L23.4658 50.2785L22.5859 46.466L23.0732 46.3547L22.1934 42.5422L21.7061 42.6535L20.8262 38.841L21.3135 38.7297L20.873 36.8234L20.7705 36.3371C20.6773 35.8521 20.6123 35.3691 20.5742 34.8898L20.0762 34.9279C19.9663 33.5444 20.0722 32.1882 20.3662 30.8937L20.8535 31.0041C21.1452 29.7198 21.6295 28.4983 22.2773 27.3761L21.8447 27.1261C22.5227 25.9519 23.3735 24.8837 24.3652 23.9592L24.7051 24.3244C25.6528 23.4408 26.7341 22.6943 27.9199 22.1213L27.7021 21.6711C28.8978 21.0932 30.196 20.6846 31.5693 20.4806L31.6426 20.9758C32.2771 20.8815 32.929 20.8322 33.5947 20.8322H35.5059V20.3322H39.3281V20.8322H43.1504V20.3322H46.9717V20.8322H50.7939V20.3322H54.6162V20.8322H58.4385V20.3322H62.2607V20.8322H66.083V20.3322H69.9053V20.8322H73.7266V20.3322H77.5488V20.8322H81.3711V20.3322H85.1934V20.8322H87.1045C87.8464 20.8322 88.5762 20.8944 89.2881 21.0148L89.3701 20.5226C90.8913 20.7797 92.3349 21.2916 93.6504 22.0177L93.4092 22.4552C94.6919 23.1634 95.8487 24.0823 96.8271 25.173L97.1982 24.84C98.2013 25.9581 99.0236 27.2493 99.6162 28.673L99.1562 28.8654C99.3643 29.3655 99.5428 29.8828 99.6895 30.4152L99.8252 30.9523L100.266 32.8586L100.752 32.7463L101.632 36.5588L101.146 36.6711L102.025 40.4836L102.512 40.3713L103.392 44.1838L102.905 44.2961L103.785 48.1086L104.271 47.9963V47.9953L105.151 51.8078V51.8088L104.665 51.9211L105.544 55.7336L106.031 55.6213V55.6203L106.911 59.4328V59.4338L106.424 59.5461L107.304 63.3586L107.79 63.2463L108.67 67.0588H108.671L108.184 67.1711L109.063 70.9836L109.55 70.8713L110.43 74.6838H110.431L109.943 74.7961L110.823 78.6086L111.31 78.4963L112.189 82.3088H112.19L111.703 82.4211L112.583 86.2336L113.069 86.1213L113.949 89.9338H113.95L113.463 90.0461L113.902 91.9523C114.052 92.6009 114.151 93.2466 114.202 93.8859L114.699 93.8468Z" fill="#D9D9D9" stroke="#B5B5B5" stroke-dasharray="4 4"/>
<path d="M28.8398 102.794L29.6875 106.559V106.56L29.2002 106.669L29.4863 107.942H28.0986V108.442H24.0732V107.942H20.0479V108.442H16.0225V107.942H14.0088C13.3271 107.942 12.6608 107.891 12.0127 107.792L11.9375 108.286H11.9365C10.5302 108.073 9.20536 107.644 7.98926 107.04L8.21191 106.595C7.0045 105.996 5.90863 105.216 4.95508 104.295L4.60742 104.654C3.6097 103.69 2.76299 102.578 2.09863 101.361L2.53711 101.122C1.90215 99.9588 1.44019 98.6946 1.18262 97.3714L0.693359 97.4662C0.434142 96.134 0.3721 94.7434 0.539062 93.3314L1.03613 93.39C1.09391 92.9015 1.1792 92.4099 1.29492 91.9173L1.4209 91.4251L1.91797 89.6165L1.43652 89.4837L1.43555 89.4828L2.42969 85.8665L2.43066 85.8675L2.91309 86.0003L3.90723 82.3841L3.4248 82.2513L3.42383 82.2503L4.41895 78.6341L4.41992 78.6351L4.90137 78.7679L5.89648 75.1517L5.41406 75.0189L5.41309 75.0179L6.40723 71.4017L6.4082 71.4027L6.89062 71.5355L7.88477 67.9193L7.40332 67.7865L7.40234 67.7855L8.39648 64.1693L8.39746 64.1703L8.87988 64.3031L9.87402 60.6869L9.3916 60.554L10.3857 56.9369L10.3867 56.9378L10.8682 57.0706L11.8633 53.4535L11.3809 53.3216L11.3799 53.3206L12.375 49.7054L12.8574 49.8372L13.8516 46.221L13.3701 46.0892L13.3691 46.0882L14.3633 42.472L14.3643 42.473L14.7803 42.5863L14.7969 42.6566L15.2842 42.5472L16.1318 46.3128L15.6445 46.4222L16.4922 50.1878L16.9785 50.0775L17.8262 53.8431L17.3389 53.9535L18.1865 57.7181L18.6738 57.6087L19.5205 61.3744H19.5215L19.0332 61.4837L19.8809 65.2494L20.3682 65.14V65.139L21.2148 68.9056H21.2158L20.7275 69.015L21.5752 72.7806L22.0625 72.6703V72.6693L22.9092 76.4359H22.9102L22.4219 76.5462L23.2695 80.3109L23.7568 80.2015L24.6045 83.9662V83.9671L24.1172 84.0765L24.9639 87.8421L25.4512 87.7328L26.2988 91.4974L25.8115 91.6078L26.6582 95.3734L27.1455 95.263L27.9932 99.0277V99.0287L27.5059 99.138L28.3525 102.904L28.8398 102.794Z" fill="#D9D9D9" stroke="#B5B5B5" stroke-dasharray="4 4"/>
<path d="M57.1948 49.877L80.2653 84.1257" stroke="#B2B4B6" stroke-width="2.06472" stroke-linecap="round"/>
<path d="M51.7998 65.624L63.335 82.7484" stroke="#B2B4B6" stroke-width="2.06472" stroke-linecap="round"/>
<path d="M73.8066 48.7998L85.3419 65.9242" stroke="#B2B4B6" stroke-width="2.06472" stroke-linecap="round"/>
</svg>
