<svg width="24" height="24" viewBox="0 0 24 24" fill="none" xmlns="http://www.w3.org/2000/svg">
<g clip-path="url(#clip0_36_4233)">
<path d="M15.0819 6.95327L15.4156 4.92625C15.5031 4.39113 15.4451 3.84232 15.2476 3.33733C15.0501 2.83234 14.7204 2.38977 14.2931 2.05598C13.8658 1.72219 13.3565 1.50947 12.8188 1.44012C12.281 1.37076 11.7345 1.44732 11.2364 1.66177C10.5482 1.97065 9.99522 2.51864 9.68018 3.20413L7.82795 6.95327H3.14327C2.35307 6.95327 1.59523 7.26717 1.03648 7.82593C0.477724 8.38468 0.163818 9.14252 0.163818 9.93272L0.163818 18.8711C0.163818 19.6613 0.477724 20.4191 1.03648 20.9778C1.59523 21.5366 2.35307 21.8505 3.14327 21.8505H21.2003C21.6811 21.8505 22.0928 21.5061 22.1778 21.0329L23.9994 10.8891L24.0113 7.95043C24.0135 7.40036 23.5682 6.95327 23.0181 6.95327H15.0819ZM2.15012 18.8711V9.93272C2.15012 9.66932 2.25475 9.41671 2.441 9.23045C2.62726 9.0442 2.87987 8.93957 3.14327 8.93957H7.11586V19.8642H3.14327C2.87987 19.8642 2.62726 19.7596 2.441 19.5733C2.25475 19.3871 2.15012 19.1345 2.15012 18.8711ZM22.0131 10.6279L20.5014 19.0466C20.4164 19.5198 20.0046 19.8642 19.5239 19.8642H9.10216V8.84919L11.5046 3.98276C11.5859 3.83556 11.7011 3.70978 11.8405 3.61574C11.9799 3.52171 12.1397 3.46211 12.3066 3.44184C12.4736 3.42158 12.643 3.44123 12.8008 3.49918C12.9587 3.55713 13.1006 3.65173 13.2148 3.77519C13.3124 3.88865 13.3837 4.02225 13.4237 4.16646C13.4637 4.31066 13.4714 4.46192 13.4462 4.60944L12.7321 8.93957H21.02C21.5685 8.93957 22.0131 9.38421 22.0131 9.93272V10.6279Z" fill="#6D6D6D"/>
<path d="M2.15012 18.8711V9.93272C2.15012 9.66932 2.25475 9.41671 2.441 9.23045C2.62726 9.0442 2.87987 8.93957 3.14327 8.93957H7.11586V19.8642H3.14327C2.87987 19.8642 2.62726 19.7596 2.441 19.5733C2.25475 19.3871 2.15012 19.1345 2.15012 18.8711Z" fill="#6D6D6D"/>
</g>
<defs>
<clipPath id="clip0_36_4233">
<rect width="23.8356" height="23.8356" fill="white" transform="translate(0.164307)"/>
</clipPath>
</defs>
</svg>
