<svg width="24" height="24" viewBox="0 0 24 24" fill="none" xmlns="http://www.w3.org/2000/svg">
<g clip-path="url(#clip0_66_3028)">
<path d="M23.8358 14.1172L21.9956 3.79883C21.9111 3.32507 21.4991 2.98006 21.0178 2.98006H2.97969C2.18949 2.98006 1.43166 3.29396 0.872904 3.85272C0.314149 4.41147 0.000244141 5.16931 0.000244141 5.9595L0.000244141 14.8978C0.000244141 15.688 0.314149 16.4459 0.872904 17.0046C1.43166 17.5634 2.18949 17.8773 2.97969 17.8773H7.65941L9.5603 21.7297C9.88085 22.3775 10.4233 22.8887 11.089 23.1704C11.7546 23.452 12.4993 23.4853 13.1874 23.2642C13.8755 23.0431 14.4615 22.5823 14.8385 21.9657C15.2156 21.3491 15.3588 20.6176 15.2421 19.9043L14.9084 17.8773H22.8427C23.3912 17.8773 23.8358 17.4326 23.8358 16.8841V14.1172ZM1.98654 14.8978V5.9595C1.98654 5.69611 2.09118 5.44349 2.27743 5.25724C2.46368 5.07099 2.71629 4.96636 2.97969 4.96636H6.95229V15.891H2.97969C2.71629 15.891 2.46368 15.7864 2.27743 15.6001C2.09118 15.4139 1.98654 15.1612 1.98654 14.8978ZM21.8495 14.8978C21.8495 15.4464 21.4049 15.891 20.8564 15.891H12.5685L13.2826 20.2261C13.3078 20.3736 13.3001 20.5249 13.2601 20.6691C13.2201 20.8133 13.1488 20.9469 13.0512 21.0603C12.9367 21.1835 12.7946 21.2777 12.6366 21.3353C12.4787 21.3929 12.3093 21.4122 12.1424 21.3917C11.9755 21.3711 11.8158 21.3113 11.6765 21.2171C11.5372 21.1229 11.4222 20.997 11.341 20.8498L8.93859 15.9814V4.96636H19.3603C19.8411 4.96636 20.2528 5.31075 20.3378 5.78397L21.8495 14.2026V14.8978Z" fill="#B4D780"/>
<path d="M1.98654 14.8978V5.9595C1.98654 5.69611 2.09118 5.44349 2.27743 5.25724C2.46368 5.07099 2.71629 4.96636 2.97969 4.96636H6.95229V15.891H2.97969C2.71629 15.891 2.46368 15.7864 2.27743 15.6001C2.09118 15.4139 1.98654 15.1612 1.98654 14.8978Z" fill="#B4D780"/>
</g>
<defs>
<clipPath id="clip0_66_3028">
<rect width="23.8356" height="23.8356" fill="white"/>
</clipPath>
</defs>
</svg>
