<svg width="25" height="24" viewBox="0 0 25 24" fill="none" xmlns="http://www.w3.org/2000/svg">
<g clip-path="url(#clip0_66_3031)">
<path d="M15.7533 6.95327L16.087 4.92625C16.1745 4.39113 16.1165 3.84232 15.919 3.33733C15.7215 2.83234 15.3918 2.38977 14.9645 2.05598C14.5372 1.72219 14.0279 1.50947 13.4902 1.44012C12.9524 1.37076 12.4059 1.44732 11.9078 1.66177C11.2195 1.97065 10.6666 2.51864 10.3516 3.20413L8.49934 6.95327H3.81465C3.02445 6.95327 2.26662 7.26717 1.70787 7.82593C1.14911 8.38468 0.835205 9.14252 0.835205 9.93272L0.835205 18.8711C0.835205 19.6613 1.14911 20.4191 1.70787 20.9778C2.26662 21.5366 3.02445 21.8505 3.81465 21.8505H21.8717C22.3525 21.8505 22.7642 21.5061 22.8492 21.0329L24.6708 10.8891L24.6827 7.95043C24.6849 7.40036 24.2396 6.95327 23.6895 6.95327H15.7533ZM2.8215 18.8711V9.93272C2.8215 9.66932 2.92614 9.41671 3.11239 9.23045C3.29864 9.0442 3.55125 8.93957 3.81465 8.93957H7.78725V19.8642H3.81465C3.55125 19.8642 3.29864 19.7596 3.11239 19.5733C2.92614 19.3871 2.8215 19.1345 2.8215 18.8711ZM22.6845 10.6279L21.1728 19.0466C21.0878 19.5198 20.676 19.8642 20.1952 19.8642H9.77355V8.84919L12.176 3.98276C12.2573 3.83556 12.3724 3.70978 12.5119 3.61574C12.6513 3.52171 12.8111 3.46211 12.978 3.44184C13.145 3.42158 13.3144 3.44123 13.4722 3.49918C13.6301 3.55713 13.772 3.65173 13.8862 3.77519C13.9838 3.88865 14.0551 4.02225 14.0951 4.16646C14.1351 4.31066 14.1428 4.46192 14.1176 4.60944L13.4035 8.93957H21.6913C22.2398 8.93957 22.6845 9.38421 22.6845 9.93272V10.6279Z" fill="#B4D780"/>
<path d="M2.8215 18.8711V9.93272C2.8215 9.66932 2.92614 9.41671 3.11239 9.23045C3.29864 9.0442 3.55125 8.93957 3.81465 8.93957H7.78725V19.8642H3.81465C3.55125 19.8642 3.29864 19.7596 3.11239 19.5733C2.92614 19.3871 2.8215 19.1345 2.8215 18.8711Z" fill="#B4D780"/>
</g>
<defs>
<clipPath id="clip0_66_3031">
<rect width="23.8356" height="23.8356" fill="white" transform="translate(0.835693)"/>
</clipPath>
</defs>
</svg>
