<svg width="27" height="27" viewBox="0 0 27 27" fill="none" xmlns="http://www.w3.org/2000/svg">
<path d="M23.657 20.5543L18.8257 15.7212C20.2743 13.8336 20.9506 11.4657 20.7175 9.09786C20.4843 6.72998 19.3591 4.53945 17.5702 2.97062C15.7813 1.40179 13.4625 0.572134 11.0844 0.649963C8.70621 0.727791 6.4467 1.70727 4.76418 3.38971C3.08166 5.07215 2.10214 7.33156 2.02431 9.70961C1.94647 12.0877 2.77616 14.4063 4.34507 16.1951C5.91397 17.984 8.10461 19.1091 10.4726 19.3422C12.8406 19.5754 15.2086 18.8991 17.0963 17.4506L21.9316 22.2868C22.0452 22.4003 22.18 22.4904 22.3284 22.5519C22.4768 22.6133 22.6358 22.6449 22.7964 22.6449C22.957 22.6449 23.116 22.6133 23.2644 22.5519C23.4127 22.4904 23.5475 22.4003 23.6611 22.2868C23.7747 22.1732 23.8647 22.0384 23.9262 21.8901C23.9877 21.7417 24.0193 21.5827 24.0193 21.4221C24.0193 21.2615 23.9877 21.1025 23.9262 20.9541C23.8647 20.8058 23.7747 20.6709 23.6611 20.5574L23.657 20.5543ZM4.4814 10.0245C4.4814 8.65631 4.88713 7.31887 5.64727 6.18129C6.40741 5.04371 7.48783 4.15708 8.7519 3.63351C10.016 3.10994 11.4069 2.97295 12.7488 3.23986C14.0908 3.50678 15.3234 4.16561 16.2909 5.13304C17.2584 6.10047 17.9172 7.33305 18.1842 8.67492C18.4511 10.0168 18.3141 11.4077 17.7905 12.6717C17.2669 13.9357 16.3802 15.0161 15.2426 15.7762C14.1049 16.5363 12.7675 16.942 11.3992 16.942C9.56509 16.9401 7.80661 16.2107 6.50967 14.9138C5.21273 13.6169 4.48329 11.8585 4.4814 10.0245Z" fill="#B5B5B5"/>
</svg>
