<svg width="25" height="24" viewBox="0 0 25 24" fill="none" xmlns="http://www.w3.org/2000/svg">
<path d="M23.526 10.3293C24.0772 9.85089 23.7826 8.94502 23.0555 8.88232L16.0125 8.275L13.261 1.79287C12.9761 1.12156 12.0245 1.12182 11.74 1.79328L8.9875 8.2875L1.95099 8.88448C1.22282 8.94626 0.927563 9.85355 1.4799 10.332L6.825 14.9625L5.21979 21.8434C5.05378 22.555 5.82556 23.1159 6.45119 22.7383L12.5 19.0875L18.552 22.7402C19.1771 23.1175 19.9485 22.5577 19.7836 21.8463L18.1875 14.9625L23.526 10.3293ZM12.9271 17.0083C12.6645 16.8495 12.3354 16.8494 12.0727 17.008L7.8 19.5875L8.93659 14.7229C9.00634 14.4244 8.90505 14.1118 8.67348 13.9109L4.9 10.6375L9.87881 10.2055C10.184 10.1791 10.4495 9.98587 10.5686 9.70361L12.5 5.125L14.4436 9.71697C14.5629 9.99876 14.8282 10.1915 15.133 10.218L20.1125 10.65L16.339 13.9234C16.1075 14.1243 16.0062 14.4369 16.0759 14.7354L17.2125 19.6L12.9271 17.0083Z" fill="#B4D780"/>
</svg>
