<svg width="26" height="24" viewBox="0 0 26 24" fill="none" xmlns="http://www.w3.org/2000/svg">
<path d="M24.3671 10.0333C24.7907 9.66557 24.5643 8.96932 24.0054 8.92112L16.5125 8.275L13.5849 1.378C13.3659 0.862031 12.6346 0.86223 12.4158 1.37831L9.4875 8.2875L1.99953 8.92278C1.43986 8.97026 1.21292 9.66761 1.63745 10.0354L7.325 14.9625L5.61687 22.2846C5.48927 22.8315 6.08246 23.2626 6.56332 22.9724L13 19.0875L19.4391 22.9739C19.9196 23.2639 20.5125 22.8336 20.3857 22.2869L18.6875 14.9625L24.3671 10.0333ZM13 16.75V5.125L14.9885 9.82296C15.0802 10.0395 15.284 10.1877 15.5183 10.208L20.6125 10.65L16.7519 13.999C16.5739 14.1534 16.4961 14.3936 16.5497 14.6231L17.7125 19.6L13 16.75Z" fill="#B4D780"/>
</svg>
